<?xml version="1.0" encoding="utf-8"?>
<!-- Generator: Adobe Illustrator 16.0.0, SVG Export Plug-In . SVG Version: 6.00 Build 0)  -->
<!DOCTYPE svg PUBLIC "-//W3C//DTD SVG 1.1//EN" "http://www.w3.org/Graphics/SVG/1.1/DTD/svg11.dtd">
<svg version="1.1" id="Layer_1" xmlns="http://www.w3.org/2000/svg" xmlns:xlink="http://www.w3.org/1999/xlink" x="0px" y="0px"
	 width="800px" height="451.853px" viewBox="0 0 800 451.853" enable-background="new 0 0 800 451.853" xml:space="preserve">
<g>
	<g>
		<path fill="#431617" d="M59.611,294.498c3.214,0,6.199,0.199,8.966,0.597c2.763,0.388,5.764,0.952,9.007,1.692
			c3.236,0.74,5.716,1.257,7.435,1.54c1.713,0.292,3.759,0.441,6.134,0.441c7.066,0,12.842-1.549,17.339-4.657
			c0.227,0,0.339,0.248,0.339,0.739c-4.022,6.585-9.054,16.386-15.105,29.38c-6.046,13.005-9.934,22.94-11.662,29.821v0.695
			l1.049-1.087c11.416-12.483,20.692-22.354,27.807-29.644c7.118-7.283,14.763-14.026,22.914-20.217
			c8.156-6.197,14.929-9.302,20.312-9.302c4.022,0,7.143,0.651,9.365,1.947c2.224,1.3,3.325,3.68,3.325,7.145
			c0,2.15-0.512,3.477-1.542,3.968c-0.475-0.546-0.716-1.623-0.716-3.217c0-4.411-3.142-6.619-9.422-6.619
			c-4.053,0-8.285,1.236-12.69,3.703c-4.415,2.464-8.239,5.085-11.458,7.87c-3.231,2.785-7.241,6.48-12.044,11.092
			c-4.05,11.774-7.518,23.565-10.407,35.379c-2.891,11.821-4.334,20.974-4.334,27.467c0,9.514,3.255,14.271,9.757,14.271
			c2.516-0.03,5.013-0.963,7.494-2.81c2.492-1.839,4.488-3.645,5.992-5.412c1.513-1.768,3.014-3.655,4.529-5.661
			c0.223-0.253,0.569-0.388,1.049-0.388c0.217,0,0.334,0.362,0.334,1.093v0.342c-6.516,10.706-13.546,16.06-21.117,16.06
			c-5.886,0-10.214-1.685-12.981-5.051c-2.762-3.357-4.146-7.801-4.146-13.307c0-4.99,0.532-10.084,1.612-15.288
			c1.073-5.209,2.804-11.723,5.188-19.553c2.395-7.831,3.725-12.25,4.005-13.268c0-0.229-0.129-0.348-0.38-0.348h-0.334
			c-7.676,7.398-13.769,13.758-18.284,19.097c-4.509,5.337-9.083,11.058-13.714,17.18c-4.638,6.117-8.151,10.467-10.555,13.043
			c-10.861,11.664-22.921,17.494-36.187,17.494c-3.969,0-7.482-0.915-10.536-2.722c-3.061-1.817-5.506-3.967-7.329-6.461
			c-1.831-2.496-3.021-4.672-3.583-6.524c0-0.467-0.112-0.809-0.334-1.047c0-0.725,0.222-1.088,0.667-1.088
			c0.698,0,1.052,0.11,1.052,0.348c0.832,1.37,1.735,2.796,2.695,4.285c0.968,1.489,2.247,3.029,3.836,4.589
			c1.596,1.568,3.577,2.859,5.945,3.876c2.376,1.009,5.138,1.521,8.297,1.521c4.581,0,9.664-1.738,15.247-5.219
			c5.582-3.48,11.054-8.634,16.396-15.452c5.348-6.822,9.897-14.835,13.632-24.061c8.046-20.795,18.279-38.318,30.703-52.567
			c0-0.492-0.112-0.73-0.334-0.73c-1.119,0.313-3.078,1.058-5.886,2.229c-2.803,1.167-5.308,2.07-7.494,2.711
			c-2.193,0.651-4.421,0.969-6.686,0.969c-2.644,0-5.325-0.145-8.015-0.417c-2.703-0.283-5.413-0.671-8.168-1.182
			c-2.75-0.512-5.031-0.903-6.849-1.183c-1.818-0.277-3.63-0.416-5.448-0.416c-6.221,0-10.354,1.32-12.395,3.961
			c-2.046,2.638-3.054,5.949-3.054,9.927c0,1.365,0.398,3.183,1.19,5.462c0.795,2.278,1.195,3.972,1.195,5.073
			c0,0.605-0.445,1.088-1.343,1.432c-2.211-2.295-3.53-6.167-3.974-11.629c0-5.109,1.054-9.311,3.16-12.588
			c2.112-3.281,4.927-5.654,8.461-7.125C51.06,295.233,55.09,294.498,59.611,294.498z"/>
		<path fill="#431617" d="M183.998,352.423c4.111,0,7.623,0.442,10.544,1.331c2.919,0.885,4.386,2.165,4.386,3.844v0.348
			c-1.233,2.934-3.372,7.329-6.415,13.188c-3.043,5.859-5.277,10.303-6.72,13.312c-1.436,3.02-2.715,6.36-3.829,10.009
			c0.528,2.261,1.841,3.396,3.934,3.396c2.177-0.143,3.678-0.824,4.504-2.04c0.828-1.222,1.554-2.845,2.199-4.88
			c0-0.493,0.333-0.74,1-0.74c0.699,0,1.052,0.48,1.052,1.439c-0.511,3.337-1.565,5.745-3.185,7.22
			c-1.619,1.484-3.999,2.224-7.119,2.224h-15.457c-0.444,0-0.896-0.233-1.343-0.694c0.448-1.449,0.67-2.295,0.67-2.528
			c-3.829,2.15-8.063,3.223-12.707,3.223c-6.908,0-11.381-1.488-13.421-4.463c-2.042-2.974-3.062-6.47-3.062-10.502
			c0-5.282,2.38-10.525,7.147-15.739c4.763-5.204,10.679-9.459,17.751-12.771C170.993,354.29,177.689,352.568,183.998,352.423z
			 M189.329,355.86c-0.81-0.264-1.56-0.394-2.259-0.394c-3.88,0-8.84,1.202-14.887,3.61c-6.046,2.403-11.37,5.864-15.96,10.388
			c-4.593,4.519-6.892,9.836-6.892,15.948c0,3.535,0.887,6.236,2.662,8.093c1.771,1.852,4.037,2.895,6.804,3.128
			c5.167-0.467,9.048-2.135,11.645-4.999c1.678-1.595,3.139-3.605,4.375-6.024c1.248-2.417,3.306-6.578,6.18-12.478
			c2.879-5.888,5.77-11.3,8.665-16.23c0.23,0,0.341-0.12,0.341-0.348C190.002,356.088,189.78,355.86,189.329,355.86z"/>
		<path fill="#431617" d="M281.771,294.498c2.404,0,4.542,0.612,6.431,1.813c1.882,1.207,3.359,2.836,4.439,4.896
			c1.073,2.047,1.689,4.281,1.823,6.699c0,0.694-0.515,1.231-1.547,1.607c-0.897-0.521-1.343-1.056-1.343-1.618
			c-0.2-2.695-1.061-5.06-2.597-7.11c-1.538-2.035-3.942-3.063-7.206-3.063c-4.744,0-9.529,2.363-14.342,7.091
			c-4.815,4.727-9.325,10.495-13.504,17.313c-4.195,6.808-8.921,15.272-14.185,25.372c-5.261,10.1-8.75,16.619-10.451,19.544v0.525
			c2.399-1.276,5.731-3.53,9.992-6.753c4.257-3.217,7.998-5.659,11.219-7.329c3.231-1.663,6.732-2.503,10.496-2.503
			c3.353,0,6.051,1.188,8.103,3.552c2.058,2.358,3.085,5.088,3.085,8.196s-0.821,6.228-2.475,9.36
			c-1.654,3.132-4.111,7.318-7.394,12.557c-3.279,5.229-4.919,8.501-4.919,9.806c0,2.031,0.757,3.05,2.262,3.05
			c1.085,0,2.275-0.62,3.561-1.877c1.283-1.241,2.203-1.867,2.768-1.867c0.468,0,0.708,0.482,0.708,1.435
			c0,1.798-1.186,3.169-3.565,4.122c-2.367,0.938-4.621,1.411-6.735,1.411c-1.989,0-4.961-0.065-8.926-0.18
			c-3.969-0.114-6.937-0.169-8.919-0.169c-1.931,0-3.125-0.482-3.601-1.436c0.306-0.959,0.985-1.439,2.045-1.439
			c2.852,0,5.085-0.884,6.711-2.656c2.76-3.303,5.663-7.369,8.705-12.185c3.045-4.812,5.583-9.325,7.623-13.526
			c2.035-4.21,3.061-7.233,3.061-9.062c0-4.025-1.665-6.042-4.99-6.042c-5.323,0-11.18,2.537-17.566,7.612
			c-6.38,5.079-11.829,10.972-16.337,17.69c-4.51,6.719-6.76,11.997-6.76,15.858c0,1.545,1.032,2.31,3.096,2.31
			c0.697,0,1.424-0.223,2.179-0.655c0.754-0.433,1.598-1.058,2.517-1.873c0.915-0.809,1.702-1.443,2.34-1.91
			c0.112,0,0.277-0.069,0.479-0.194c0.213-0.128,0.388-0.199,0.523-0.199c0.702,0,1.05,0.363,1.05,1.088
			c0,0.114-0.053,0.294-0.166,0.521c-0.11,0.233-0.169,0.417-0.169,0.566c-2.848,4.146-6.451,6.226-10.806,6.226
			c-2.04,0-4.997-0.064-8.877-0.178c-3.884-0.12-6.813-0.168-8.797-0.168c-3.042,0-5.114-0.846-6.203-2.528v-0.87
			c0-0.725,0.351-1.092,1.048-1.092c0.306,0,0.858,0.218,1.638,0.636c0.778,0.417,1.496,0.631,2.133,0.631
			c1.678,0,3.268-0.919,4.773-2.74c1.512-1.832,3.922-5.791,7.254-11.878c4.409-8.237,9.405-17.537,14.988-27.898
			c5.583-10.359,11.37-20.03,17.344-29.019c5.974-8.996,12.238-16.489,18.789-22.481
			C269.116,297.492,275.52,294.498,281.771,294.498z"/>
		<path fill="#431617" d="M303.928,352.075c0.112,0,0.334-0.069,0.669-0.203c0.333-0.128,0.575-0.188,0.717-0.188
			c0.332,0,0.504,0.363,0.504,1.088c0,0.347-0.06,0.77-0.172,1.261c-0.029,0.085-1.343,2.508-3.956,7.265
			c-2.615,4.761-4.809,9.459-6.575,14.097c-1.776,4.646-2.662,8.917-2.662,12.839c0,6.063,3.25,9.096,9.757,9.096
			c4.639,0,8.744-2.163,12.321-6.479c3.57-4.324,6.327-9.444,8.269-15.367c1.94-5.919,2.913-11.054,2.913-15.408
			c0-0.749-0.158-2.695-0.463-5.828c-0.311-3.129-0.615-4.693-0.921-4.693c0-0.203,0.158-0.431,0.481-0.684
			c0.322-0.24,0.623-0.363,0.903-0.363c0.47,0,0.708,0.119,0.708,0.342c3.074,7.404,4.61,12.871,4.61,16.411
			c0,5.512-1.507,11.037-4.526,16.579c-3.016,5.542-7.013,10.08-11.974,13.6c-4.974,3.525-10.22,5.289-15.75,5.289
			c-4.253-0.199-7.854-1.521-10.807-3.948c-2.961-2.418-4.446-5.974-4.446-10.671c0-2.963,0.404-5.685,1.214-8.163
			c0.814-2.487,1.9-4.815,3.272-7.011c1.372-2.185,2.795-4.195,4.291-6.022c1.496-1.832,3.13-3.799,4.921-5.919v-0.342
			c-0.863,0.228-1.726,0.472-2.573,0.71c-0.852,0.242-1.707,0.486-2.582,0.714c-0.779,0-1.292-0.228-1.549-0.694
			c0.726-1.59,2.533-3.094,5.425-4.504C298.841,353.471,301.502,352.538,303.928,352.075z"/>
		<path fill="#431617" d="M350.082,380.606c0,3.996,1.572,7.537,4.697,10.635c3.127,3.104,6.713,4.648,10.766,4.648
			c3.629,0,6.724-0.632,9.292-1.907c2.575-1.271,5.184-2.949,7.834-5.034h0.71c0.563,0,0.839,0.307,0.839,0.913
			c0,0.462-0.053,0.824-0.166,1.088c-6.314,6.514-14.025,9.777-23.165,9.777c-5.109,0-9.296-0.974-12.568-2.925
			c-3.266-1.938-5.617-4.346-7.053-7.216c-1.436-2.869-2.151-5.73-2.151-8.575c0-6.062,2.245-11.613,6.737-16.647
			c4.496-5.025,10.087-8.978,16.774-11.862c6.692-2.86,13.036-4.301,19.035-4.301c2.992,0,5.396,0.651,7.208,1.942
			c1.818,1.291,2.721,3.197,2.721,5.73c-0.053,3.917-1.407,7.739-4.064,11.479c-2.65,3.728-6.491,6.797-11.512,9.189
			c-5.03,2.403-10.866,3.66-17.51,3.77c-0.919-0.119-2.32-0.229-4.191-0.348C352.444,380.84,351.032,380.726,350.082,380.606z
			 M349.753,377.358c3.547,0.607,5.647,0.974,6.322,1.088c4.327-0.114,8.36-1.166,12.107-3.158c3.742-1.986,6.749-4.448,9.023-7.373
			c2.275-2.935,3.525-5.774,3.754-8.535c0-3.569-2.346-5.348-7.042-5.348c-3.323,0-6.868,1.173-10.62,3.526
			c-3.758,2.347-6.925,5.352-9.507,9.001C351.214,370.213,349.86,373.814,349.753,377.358z"/>
		<path fill="#431617" d="M479.092,294.498c9.077,0,17.851,2.136,26.324,6.401c8.475,4.266,15.357,10.277,20.651,18.038
			c5.291,7.755,7.943,16.544,7.943,26.352c0,7.913-1.644,15.326-4.908,22.229c-3.269,6.907-7.766,12.899-13.507,17.97
			c-5.733,5.083-12.297,9.007-19.686,11.778c-7.384,2.765-14.992,4.155-22.807,4.155c-4.746,0-9.224-0.557-13.425-1.679
			c-4.206-1.116-7.866-2.442-10.993-3.997c-3.131-1.554-5.902-3.208-8.33-4.97c-2.438-1.754-3.929-2.831-4.488-3.233
			c-0.951-0.755-1.688-1.702-2.222-2.875c0-0.456,0.286-0.699,0.841-0.699c0.276,0,0.611,0.06,1.01,0.179
			c0.386,0.118,0.624,0.179,0.706,0.179c3.933,2.87,7.366,5.209,10.28,7.026c2.921,1.807,6.433,3.405,10.515,4.78
			c4.091,1.376,8.536,2.066,13.345,2.066c7.059,0,13.897-1.484,20.503-4.435c6.601-2.959,12.422-7.011,17.463-12.159
			c5.037-5.148,8.985-11.048,11.834-17.706c2.849-6.649,4.272-13.5,4.272-20.547c0-9.285-1.769-17.343-5.324-24.181
			c-3.545-6.847-8.742-12.131-15.575-15.864c-6.839-3.719-14.983-5.585-24.423-5.585c-4.636,0-9.425,0.586-14.386,1.743
			c-4.962,1.155-9.707,3.043-14.236,5.654c-4.541,2.611-8.218,6.044-11.042,10.308c-2.819,4.266-4.233,9.35-4.233,15.264
			c0,3.192,0.292,5.854,0.86,7.979c0.578,2.14,0.864,3.212,0.864,3.242c0,0.347-0.358,0.71-1.052,1.087
			c-2.403-2.696-3.599-6.435-3.599-11.231c0-8.703,2.509-15.854,7.543-21.439c5.022-5.586,11.149-9.617,18.381-12.101
			S472.392,294.498,479.092,294.498z M502.257,307.905c0,0.263-0.525,1.002-1.596,2.22c-1.062,1.216-2.38,2.939-3.976,5.168
			c-1.593,2.245-3.504,5.412-5.731,9.533c-2.132,3.967-4.779,10.034-7.968,18.198c-3.182,8.163-5.93,14.796-8.249,19.9
			c-2.313,5.1-5.323,10.04-9.026,14.807c-3.696,4.767-8.16,8.5-13.383,11.201c-0.282-0.145-0.508-0.283-0.669-0.417
			c-0.162-0.124-0.283-0.219-0.34-0.277c0.178-0.348,0.32-0.681,0.464-0.979c0.139-0.303,0.32-0.69,0.545-1.151
			c3.234-4.499,6.046-9.146,8.416-13.937c2.37-4.798,5.109-10.87,8.211-18.203c3.102-7.34,5.712-13.277,7.839-17.815
			c2.12-4.534,4.487-8.902,7.115-13.113c1.841-3.014,4.843-6.416,9.01-10.199c4.152-3.783,7.045-5.674,8.665-5.674
			C502.034,307.166,502.257,307.414,502.257,307.905z"/>
		<path fill="#431617" d="M570.025,352.075c0.027,0,0.194-0.069,0.505-0.203c0.302-0.128,0.546-0.188,0.712-0.188
			c0.67,0,1.01,0.531,1.01,1.604v1.435l-20.738,38.688c-0.415,0.755-0.77,1.585-1.052,2.479c0,0.467,0.196,0.809,0.588,1.052
			c0.393,0.225,0.876,0.408,1.449,0.536c0.568,0.134,1.146,0.259,1.734,0.372c2.318-0.584,3.871-0.872,4.65-0.872
			c0.67,0,1.003,0.112,1.003,0.351c0,2.261-2.455,3.398-7.363,3.398h-18.187c-1.702,0-2.547-0.363-2.547-1.088
			c0-1.421,1.534-2.136,4.602-2.136c1.372,0,2.754-1.133,4.149-3.396l17.301-32.419l-8.048,2.487c-0.699,0-1.214,0.11-1.549,0.344
			c-0.812,0-1.382-0.344-1.715-1.049c0.306-1.008,1.156-1.718,2.557-2.129L570.025,352.075z M579.617,322.483
			c1.566,0,2.905,0.566,4.024,1.697c1.112,1.128,1.671,2.522,1.671,4.176c0,1.396-0.583,2.721-1.734,3.982
			c-1.156,1.267-2.475,1.892-3.961,1.892c-1.506,0-2.826-0.625-3.958-1.892c-1.122-1.262-1.692-2.587-1.692-3.982
			c0-1.593,0.57-2.969,1.712-4.136C576.825,323.064,578.138,322.483,579.617,322.483z"/>
		<path fill="#431617" d="M604.497,352.94c1.343-0.349,2.018-0.518,2.062-0.518c0.688,0,1.042,0.402,1.042,1.223v0.729
			c-0.394,0.815-2.582,4.331-6.559,10.537c-3.972,6.211-7.264,11.703-9.846,16.494c-2.576,4.776-3.871,8.421-3.871,10.919
			c0,1.192,0.426,2.354,1.275,3.485c0.853,1.132,1.923,1.693,3.203,1.693c3.638,0,8.541-2.954,14.726-8.884
			c6.184-5.907,13.005-13.359,20.46-22.343c7.455-8.978,11.562-13.838,12.316-14.593c0.501-0.467,0.96-0.701,1.38-0.701
			c0.474,0,0.714,0.482,0.714,1.44v0.865c-0.163,0.263-1.506,2.12-4.015,5.575c-2.52,3.45-4.98,7.209-7.38,11.291
			c-2.404,4.076-4.903,9.156-7.499,15.253c-3.068,7.225-6.658,14.584-10.758,22.081c-4.106,7.498-8.78,14.623-14.017,21.346
			c-5.233,6.732-10.984,12.229-17.235,16.494c-6.256,4.26-12.771,6.44-19.563,6.524c-2.791,0-5.544-0.913-8.263-2.73
			c-2.729-1.823-4.44-4.186-5.138-7.101c0-0.84,0.35-1.381,1.047-1.614c0.085,0.085,0.271,0.194,0.568,0.333
			c0.296,0.135,0.435,0.272,0.435,0.418c2.348,5.094,6.246,7.641,11.695,7.641c4.487,0,9.109-2.12,13.861-6.36
			c4.745-4.255,9.279-9.514,13.609-15.784c4.327-6.275,9.259-14.176,14.783-23.704c5.535-9.524,8.536-14.657,9.01-15.417
			c0-0.229-0.116-0.344-0.34-0.344h-0.33c-2.38,2.092-4.864,4.246-7.445,6.485c-2.591,2.229-5.195,3.967-7.819,5.193
			c-2.633,1.237-5.501,1.858-8.599,1.858c-6.179,0-9.272-2.806-9.272-8.402c0-2.409,0.449-4.901,1.343-7.482
			c0.898-2.587,1.965-4.99,3.198-7.229c1.233-2.235,3.082-5.229,5.563-8.983c2.475-3.758,3.929-5.953,4.345-6.594v-0.348
			c0-0.228-0.119-0.347-0.374-0.347c-1.648,0.844-3.871,1.782-6.666,2.834c-0.818,0-1.392-0.353-1.727-1.052
			c0.311-0.983,1.109-1.827,2.399-2.522C588.999,359.847,594.89,357.295,604.497,352.94z"/>
		<path fill="#431617" d="M688.719,352.423c4.104,0,7.623,0.442,10.542,1.331c2.921,0.885,4.379,2.165,4.379,3.844v0.348
			c-1.229,2.934-3.366,7.329-6.409,13.188c-3.05,5.859-5.281,10.303-6.72,13.312c-1.439,3.02-2.72,6.36-3.834,10.009
			c0.526,2.261,1.846,3.396,3.935,3.396c2.174-0.143,3.684-0.824,4.512-2.04c0.816-1.222,1.547-2.845,2.193-4.88
			c0-0.493,0.339-0.74,1.008-0.74c0.698,0,1.041,0.48,1.041,1.439c-0.505,3.337-1.566,5.745-3.182,7.22
			c-1.619,1.484-3.996,2.224-7.122,2.224h-15.456c-0.448,0-0.89-0.233-1.334-0.694c0.444-1.449,0.665-2.295,0.665-2.528
			c-3.832,2.15-8.067,3.223-12.713,3.223c-6.906,0-11.38-1.488-13.42-4.463c-2.042-2.974-3.06-6.47-3.06-10.502
			c0-5.282,2.38-10.525,7.145-15.739c4.762-5.204,10.678-9.459,17.752-12.771C675.706,354.29,682.406,352.568,688.719,352.423z
			 M694.047,355.86c-0.809-0.264-1.563-0.394-2.256-0.394c-3.891,0-8.852,1.202-14.892,3.61
			c-6.046,2.403-11.366,5.864-15.964,10.388c-4.593,4.519-6.892,9.836-6.892,15.948c0,3.535,0.894,6.236,2.661,8.093
			c1.774,1.852,4.044,2.895,6.812,3.128c5.166-0.467,9.042-2.135,11.643-4.999c1.673-1.595,3.135-3.605,4.378-6.024
			c1.243-2.417,3.293-6.578,6.18-12.478c2.871-5.888,5.759-11.3,8.665-16.23c0.224,0,0.333-0.12,0.333-0.348
			C694.715,356.088,694.492,355.86,694.047,355.86z"/>
		<path fill="#431617" d="M738.988,352.075h2.05c1.042,0,1.559,0.289,1.559,0.865v0.705l-3.274,5.005c0.12,0,0,0.361-0.334,1.077
			c0.229,0,0.334,0.119,0.334,0.347c1.009-0.575,2.715-1.629,5.113-3.172c2.404-1.539,4.556-2.696,6.467-3.486
			c1.917-0.774,4.059-1.227,6.434-1.341c6.284,0,9.425,2.548,9.425,7.652c0,5.198-2.915,8.039-8.75,8.534
			c-1.928-0.317-2.897-0.858-2.897-1.613c1.481-3.072,2.223-5.203,2.223-6.395c0-2.959-1.443-4.443-4.315-4.443
			c-4.216,0-8.856,2.451-13.903,7.338c-5.056,4.891-9.378,10.497-12.967,16.818c-3.585,6.325-5.377,11.15-5.377,14.486
			c0.139,0,0.024,0.363-0.338,1.088c0.386,1.307,1.423,1.962,3.101,1.962c1.812,0,3.23-0.387,4.255-1.157
			c1.013-0.764,1.705-1.152,2.069-1.152c0.477,0,0.711,0.348,0.711,1.043c0,1.371-0.789,2.453-2.365,3.268
			c-1.578,0.81-3.14,1.223-4.67,1.223h-21.449c-1.367,0-2.051-0.482-2.051-1.441c0-1.181,1.019-1.782,3.06-1.782
			c2.791,0,4.913-0.914,6.37-2.726c1.448-1.808,4.134-6.623,8.034-14.438c3.914-7.822,8.04-15.397,12.36-22.741l-6.324,2.13
			c-0.22,0-0.573,0.119-1.046,0.347c-0.054,0-0.387-0.356-1.009-1.082c0.392-1.196,0.836-1.777,1.349-1.777
			C726.28,355.696,731.674,353.992,738.988,352.075z"/>
		<path fill="#431617" d="M798.676,352.423c0.029,0,0.21-0.059,0.545-0.179c0.335-0.113,0.554-0.169,0.67-0.169
			c0.673,0,1.008,0.517,1.008,1.57v1.077c-6.576,11.956-13.378,25.084-20.418,39.385c0.301,2.263,1.617,3.396,3.934,3.396
			c0.168,0,0.632-0.09,1.392-0.264c0.755-0.173,1.323-0.262,1.715-0.262c0.67,0,1.01,0.112,1.01,0.351
			c0,2.261-2.462,3.398-7.385,3.398c-1.171,0-2.677-0.126-4.507-0.374c-1.836-0.247-3.359-0.366-4.593-0.366
			c-0.636,0-2.027,0.158-4.167,0.477c-2.142,0.312-3.563,0.521-4.26,0.609c-2.15-0.346-3.229-0.942-3.229-1.787
			c0-1.181,1.423-1.782,4.281-1.782c1.372,0,2.715-1.103,4.044-3.312c1.328-2.204,3.795-6.758,7.403-13.66
			c3.603-6.906,6.948-12.834,10.022-17.801c0.057-0.054,0.109-0.112,0.166-0.168c0.058-0.06,0.105-0.119,0.162-0.178
			c0-0.229-0.219-0.349-0.663-0.349l-7.05,1.787c-0.444,0-0.903,0.11-1.377,0.353c-0.229,0-0.506-0.353-0.84-1.052
			c0.334-1.073,0.85-1.798,1.547-2.176L798.676,352.423z"/>
	</g>
	<g>
		<path fill="#431617" d="M355.865,34.588c0,0,1.823-2.796,2.364-4.136c0.538-1.343,0.32-3.235-1.181-4.017
			c-1.513-0.782-3.336-1.564-7.206,3.57c0,0-26.487,28.883-26.487,83.319c0,54.426,19.18,95.467,27.484,107.667
			c8.302,12.196,10.93,14.277,13.182,14.382c2.271,0.104,5.208-2.999,2.328-7.007c-2.885-4.014-10.503-17.929-17.086-34.141
			c0,0-15.318-37.185-15.318-81.201c0-44.022,14.508-66.13,16.608-69.901C352.65,39.359,355.865,34.588,355.865,34.588z"/>
		<path fill="#431617" d="M414.394,0c-36.066,0-60.407,43.722-66.423,63.95c-6.01,20.22-6.063,28.975-6.063,39.466
			c0,10.487,3.765,28.104,10.629,37.89c6.868,9.787,9.694,11.188,11.442,12.872c1.752,1.671,4.715-3.075,1.214-7.835
			c-3.5-4.757-13.194-14.68-13.194-52.44c0-37.75,26.174-77.842,55.663-77.842c29.49,0,62.369,40.149,62.369,99.642
			c0,59.481-22.33,94.186-22.33,94.186s-7.829-11.799-11.36-17.058c-3.527-5.248-5.534-8.518-5.534-8.518s8.492-11.706,12.12-21.319
			c3.633-9.613,6.112-19.629,6.112-32.028c0-12.395-7.445-16.752-11.929-16.752c-4.492,0-12.024,4.757-17.464,13.681
			c-5.438,8.923-6.868,11.505-6.868,11.505s-3.345-19.934-4.201-32.92c-0.86-12.988-2.866-37.582-1.723-50.864
			c1.149-13.285,2.867-18.044,3.336-21.216c0.48-3.171,0.985-6.704-2.457-7.262c-3.432-0.554-4.937,2.231-6.149,7.731
			c-1.214,5.509-4.752,19.558-4.752,32.842c0,13.282,0,30.439,0.481,42.24c0.475,11.798,2.668,24.685,3.437,36.778
			c0.762,12.095,1.33,41.145,1.33,48.984c0,7.828-0.756,17.744-1.812,25.571c-1.048,7.83-2.667,11.403-2.955,13.092
			c-0.287,1.688,0.861,3.669,3.25,2.378c2.38-1.28,4.292-4.365,6.679-12.392c2.38-8.038,4.868-23,5.441-28.155
			c0.568-5.159,0.663-7.537,0.663-7.537s8.776,4.458,14.119,15.568c5.348,11.103,8.785,17.045,7.929,19.333
			c-0.865,2.273-4.588,8.326-11.36,11.803c-6.777,3.461-17.273,6.137-25.002,6.137c-7.729,0-14.929-1.047-14.929-1.047
			s-4.287-0.984-5.829-0.429c-1.552,0.552-2.262,4.137,0.833,6.302c3.092,2.16,11.065,3.645,19.217,3.645
			c8.149,0,30.002-3.009,46.702-20.465c16.708-17.447,37.221-49.868,37.221-112.033C482.247,55.32,450.47,0,414.394,0z
			 M425.627,179.551c-8.806,6.34-11.372,6.928-11.372,6.928l-0.272-34.081c0,0,4.962-11.646,10.787-16.515
			c5.826-4.87,13.35-5.158,13.35,11.064C438.12,163.173,434.425,173.204,425.627,179.551z"/>
	</g>
</g>
</svg>
